<svg width="49" height="51" viewBox="0 0 49 51" fill="none" xmlns="http://www.w3.org/2000/svg">
<path d="M1.50049 4.79081C2.80771 4.37655 7.12745 2.7377 8.87444 2.03346C9.6346 1.72703 13.0358 1.65951 17.5801 1.50448C20.637 1.40019 23.4482 3.12619 26.5003 5.54611C28.6173 7.22462 29.775 9.04029 30.3961 10.2308C31.1822 11.7376 31.4681 13.9006 31.6988 16.882C31.8388 18.6921 31.7654 21.1209 31.5665 23.3492C31.1908 27.5597 30.1765 30.5199 29.1922 32.513C28.0982 34.7281 26.842 35.9201 26.3416 36.3556C25.3675 37.2036 22.1512 37.3571 20.19 36.9899C18.6566 36.7028 17.9962 33.4307 17.5343 30.9329C16.8602 27.2879 17.9656 25.622 19.032 24.1706C19.6076 23.3872 21.6682 22.7391 24.9041 21.7225C28.6413 20.5484 32.2998 20.2242 34.8337 20.1736C37.1899 20.1266 39.0603 21.231 41.4884 22.8684C42.7262 23.7031 44.1131 26.0707 45.6988 28.9546C46.7131 30.7994 46.8737 32.9466 46.8432 35.1938C46.8258 36.4708 46.2588 37.1939 44.5428 39.3369C43.0678 41.127 40.3662 44.3435 38.8706 46.131C37.3751 47.9185 37.1675 48.1794 36.7491 48.6369" stroke="#FF6F1A" stroke-width="3" stroke-linecap="round"/>
</svg>
