<svg width="82" height="74" viewBox="0 0 82 74" fill="none" xmlns="http://www.w3.org/2000/svg">
<path d="M62.4966 1.79867C62.4966 1.79096 62.4966 1.78325 64.9685 1.71885C67.4405 1.65445 72.3843 1.53359 75.0296 1.50603C77.675 1.47846 77.8719 1.54784 78.0595 1.66601C78.9586 2.23227 79.4932 3.96321 79.7742 5.7124C79.8279 8.08524 79.9591 10.1992 80.136 11.1506C80.2024 11.5423 80.2216 11.749 80.2413 11.9619" stroke="black" stroke-width="3" stroke-linecap="round"/>
<path d="M1.5 53.3975C1.52785 53.3975 3.74669 54.9875 7.39592 57.6801C8.85833 58.7591 9.45887 59.3496 9.80282 59.761C10.1978 60.4108 10.2359 61.8772 9.9948 64.9988C9.76816 66.8996 9.32975 69.4435 8.82079 72.2311" stroke="black" stroke-width="3" stroke-linecap="round"/>
<path d="M6.25781 49.6152C6.28765 49.6152 6.66161 49.6642 7.32441 49.7929C7.88888 49.9025 10.8569 52.0787 15.0699 55.2055C16.7567 56.4574 16.7888 59.135 16.8688 62.7795C16.9299 64.121 17.0326 64.4314 17.0869 64.7916C17.1411 65.1518 17.1439 65.5524 17.1467 65.9651" stroke="black" stroke-width="3" stroke-linecap="round"/>
<path d="M19.7992 37.5959C20.0292 37.3639 20.7686 36.7185 23.0473 35.5404C23.7421 35.1812 24.4208 34.6944 25.1691 34.2461C26.5378 33.4261 20.5339 39.7846 19.3444 41.2443C19.1618 41.4684 22.3298 39.491 26.1748 36.7949C27.5364 35.8401 27.7537 35.8011 27.776 35.9435C27.8548 36.4447 26.318 38.3803 25.0997 40.2754C24.9327 40.5352 26.056 39.5313 27.9194 38.0222C32.3442 34.4386 35.4172 32.4799 35.6536 32.5879C36.2986 32.8824 33.261 36.454 30.389 40.3734C29.4914 41.5983 29.7929 41.3173 30.2517 40.9181C30.7105 40.5189 31.3334 40.0216 31.5712 39.892C31.6966 39.8236 29.6179 42.3691 26.9688 45.3068C26.0953 46.2756 30.722 41.907 31.9996 41.1877C32.289 41.0248 31.1353 43.1666 29.8371 45.1875C29.425 45.829 29.6768 45.7884 30.4936 45.3312C31.3103 44.874 32.726 44.0265 33.392 43.9204C34.1563 43.7987 33.0244 46.6896 33.04 48.0594C33.0492 48.8683 36.2167 45.9891 37.4596 45.1034C38.7024 44.2177 38.7312 44.4109 38.3008 45.1886C37.8704 45.9663 36.9799 47.3225 36.6177 47.9468C36.3643 48.3835 39.3739 45.831 43.6952 42.0103C45.2762 40.6123 45.6694 40.3748 45.6476 40.6722C45.6257 40.9695 45.1908 41.8247 43.2321 44.5358C41.2734 47.247 37.8042 51.7883 38.5333 51.8815C39.2625 51.9747 44.2951 47.4821 47.1293 45.009C50.3956 42.1588 51.2073 41.7556 51.5931 41.7523C52.1383 41.7477 50.8208 44.014 49.7387 45.8979C49.5356 46.2516 52.6437 44.5597 53.5348 45.6657C55.4103 47.9933 46.7812 55.0661 44.3725 58.4148C41.9638 61.7634 42.6128 61.4697 45.2792 59.4353C47.9456 57.4009 52.6097 53.6348 53.8961 52.5837C54.8202 51.8285 50.8321 54.9318 51.5428 54.2305C52.0557 53.7243 52.9374 52.9753 53.23 52.6913C53.5227 52.4073 53.2148 52.6269 52.9595 52.8314C52.4968 53.202 54.6457 51.2609 58.0675 48.0026C59.194 46.9299 58.9249 46.877 57.788 47.2893C56.6511 47.7016 54.6142 48.5402 53.5604 48.8153C52.5066 49.0905 52.4977 48.777 52.6873 48.2767C53.1522 47.05 54.7711 44.9375 56.337 42.6692C56.8636 41.9063 56.5786 41.7633 56.1071 41.8171C55.6355 41.8709 54.9176 42.0828 54.6094 42.0096C54.1469 41.8996 55.8299 39.2356 57.5885 36.3279C58.0195 35.6152 54.1464 37.911 49.4649 41.081C48.033 42.0507 48.3151 41.4067 49.7979 39.3499C51.2806 37.293 53.9039 33.7618 55.1415 31.92C56.3791 30.0781 56.1516 30.0326 55.6933 30.1693C54.516 30.5205 51.8973 32.1646 50.1266 32.9577C49.7128 33.143 52.6851 30.467 52.783 30.3372C52.881 30.2074 50.6285 32.0861 50.4542 31.6291C50.28 31.172 52.2522 28.3222 53.3097 26.7515C54.3672 25.1809 54.4503 24.9757 53.2508 26.0486C52.0514 27.1215 49.5669 29.4787 48.3258 30.4952C47.0847 31.5117 47.1623 31.116 47.7258 30.0629C48.2894 29.0097 49.3365 27.311 49.502 26.781C49.6674 26.2509 48.9194 26.941 48.616 27.0982C48.3699 27.2257 49.8243 24.3431 51.5153 21.2115C52.0596 20.2037 51.837 20.3089 50.9017 21.3119C48.2494 24.1562 46.3101 26.3355 46.0444 26.3484C45.2316 26.3878 47.6574 23.2686 49.7905 20.2692C52.0492 17.0929 52.5488 17.681 53.8555 17.0375C54.0584 16.9376 53.7294 17.9922 53.7861 18.3567C53.8671 18.8773 55.1736 18.1365 55.7158 18.0488C56.083 17.9895 55.0452 19.634 54.8437 20.1982C54.6423 20.7625 54.9016 20.6399 55.3956 20.2599C55.8895 19.8799 56.6102 19.2463 56.8691 19.1118C57.0923 18.9958 55.0506 21.8456 52.814 24.9666C52.1143 25.9429 52.6396 25.9091 53.2228 25.6799C53.806 25.4508 54.5185 25.0845 54.8713 25.027C55.25 24.9652 54.4845 26.6559 53.7278 28.3276C53.4795 28.876 56.4941 27.1423 58.4685 25.7233C58.6785 25.5723 57.4712 27.0768 56.9939 27.7553C56.5166 28.4338 56.8545 28.3687 57.3569 28.1402C57.8592 27.9116 58.5157 27.5217 58.7767 27.4421C58.9628 27.3853 57.8217 28.8556 56.6048 30.2848C56.4401 30.4783 58.6586 28.8023 60.8895 27.0743C61.804 26.366 59.5081 29.6538 59.5442 29.9282C59.6121 30.4436 61.5997 29.2035 62.2418 29.4837C66.5363 31.3575 57.1566 36.4297 57.0491 36.8004C56.9624 37.0996 58.1136 36.6518 59.0053 36.2083C59.4723 35.976 57.4969 39.3138 55.7719 42.4451C55.2124 43.4608 55.7315 43.5246 56.7018 43.0608C57.6722 42.5969 59.1898 41.6577 59.2048 42.201C59.3541 47.5947 57.1998 46.4822 56.9249 46.8591C56.5251 47.4072 55.4288 48.547 54.9852 49.098C54.667 49.4933 56.415 48.45 56.9256 48.455C58.3019 48.4684 52.5394 52.4338 50.7824 53.8745C49.0254 55.3152 49.0438 55.1158 49.2028 54.8026C49.3617 54.4893 49.6606 54.0683 49.7001 53.8649C49.7494 53.6105 47.6104 54.4383 45.159 55.3101C44.404 55.5786 44.5118 55.0138 44.7464 54.501C44.981 53.9882 45.306 53.4217 45.2857 53.181C45.2505 52.7631 42.9003 53.9343 41.8539 53.9985C40.9438 54.0542 45.1739 51.0208 45.1157 51.0683C45.0574 51.1159 42.0935 53.5345 41.9503 53.4419C38.7456 51.3718 48.0925 47.4326 48.8956 46.9637C49.4165 46.6595 47.0878 49.1044 46.8298 49.6512C46.4069 50.5472 50.4896 46.9838 52.0701 45.8027C53.6506 44.6216 53.9085 44.4696 52.5572 45.8113C51.206 47.1529 48.2378 49.9928 47.8737 50.6768C47.5095 51.3608 49.8394 49.8028 50.9517 49.0624C51.8848 48.4413 49.4038 50.7386 46.7136 53.4516C46.2407 53.9285 47.9255 52.8682 48.5535 52.296C48.9962 51.8927 45.5764 52.7602 41.3951 54.0575C40.0537 54.4737 40.1785 53.9536 40.8578 53.0784C41.537 52.2032 42.7366 50.875 43.1417 50.2781C43.3791 49.9282 39.4385 52.1142 36.1383 53.9783C35.9452 54.0874 39.3119 51.193 40.7674 49.9648C42.223 48.7365 41.8064 48.9288 40.8933 49.4441C39.9802 49.9594 38.5832 50.7919 37.9903 51.0276C37.6454 51.1647 38.5461 49.7143 39.2194 48.6729C39.5101 48.2232 35.9783 50.1978 33.0178 51.8698C32.5962 52.1079 35.196 48.6523 38.0108 45.4238C38.8709 44.4374 38.3031 44.5511 37.052 45.2641C35.801 45.9771 33.8138 47.2289 32.926 47.5576C32.282 47.7961 34.3303 44.6869 36.1309 42.5953C36.2524 42.4543 34.5193 44.041 33.7034 44.7719C33.0381 45.3679 34.6186 42.9331 36.4491 40.1339C36.8393 39.5373 35.7089 40.3834 35.2163 40.6528C34.7237 40.9223 34.7941 40.5306 35.2875 39.7716C36.5648 37.8067 38.2021 36.2264 38.9434 35.6477C39.2398 35.4163 37.6968 37.551 36.3603 39.235C35.9227 39.7864 36.2145 39.8942 36.6113 39.9209C37.5606 39.9848 38.3939 39.8865 38.6543 40.0841C38.8382 40.2236 38.3883 40.8111 38.3865 41.0287C38.384 41.333 40.3241 40.2658 41.688 39.7005C41.9305 39.6 40.1812 41.3359 40.2108 41.587C40.2405 41.8381 41.8263 40.9245 42.5092 40.6305C43.192 40.3365 42.924 40.6899 42.6649 40.9859C42.4058 41.282 42.1639 41.51 42.902 41.0107C45.3968 39.3228 47.3755 37.8803 47.6972 37.7867C47.9185 37.7224 47.0353 39.0208 46.2419 40.2111C46.0381 40.5169 47.8526 39.8686 49.0453 39.3606C50.2691 38.8395 46.8612 41.3473 46.5366 41.476C44.4216 42.314 49.2148 35.1997 49.1291 34.0394C49.0828 33.4117 47.8172 33.4747 47.0761 32.9531C46.5989 32.6172 46.7842 31.3883 46.6438 31.0156C46.5056 30.6483 45.9508 32.7625 45.8962 34.1812C45.8949 34.2149 45.9166 32.5881 46.0266 32.6473C46.1366 32.7065 46.3263 34.4325 46.444 33.7901C47.112 30.1419 46.7314 26.4245 47.023 25.3052C47.1862 24.6784 47.5388 23.9787 47.6826 23.7352C47.7377 23.6418 47.6952 24.2083 47.8643 24.1673C48.1998 24.086 48.611 23.1665 49.5924 21.2183C50.5738 19.2702 52.0027 16.1384 52.8146 14.4529C53.6266 12.7675 53.7782 12.6232 54.3205 13.623C57.1953 18.9226 57.7534 19.6128 58.3979 20.3653C58.6226 20.6277 58.7656 19.6623 58.8951 19.7646C59.1539 19.9689 59.2838 20.8812 59.4941 21.1811C59.7045 21.481 59.8581 21.2428 59.9476 21.3069C60.0371 21.3711 60.0578 21.7449 60.1606 21.822C60.2635 21.8992 60.448 21.6684 60.5846 21.6967C60.9669 21.776 61.0562 23.4098 61.3747 24.9856C61.4761 25.4874 61.6596 25.3322 61.7533 25.1548C61.8471 24.9775 61.8978 24.7693 62.0008 24.7285C62.2542 24.628 62.517 25.6056 62.6703 26.0692C62.7306 26.2514 62.7225 24.8474 62.6966 24.6844C62.3281 22.3629 61.8433 29.2789 61.6011 29.7655C61.487 29.9949 61.2595 30.1109 60.9966 29.8819C59.529 28.604 58.5777 27.1416 57.9658 26.0559C57.555 25.3269 57.2575 24.5369 56.9157 24.1436C56.0244 23.118 57.314 26.4216 57.557 26.7779C57.7346 27.0383 57.7721 25.0366 57.8584 23.3404C57.8941 22.6403 58.7256 22.4552 58.7367 22.3407C58.8552 21.1148 59.4254 25.0546 59.1857 27.7265C59.0028 29.7642 57.1465 32.8958 56.6561 34.3114C56.1657 35.7271 56.7013 35.2576 57.3062 34.6234C57.9112 33.9893 58.5692 33.2047 57.8678 33.7911C57.1664 34.3775 55.0858 36.3587 54.1217 37.3103C53.1577 38.2619 53.3733 38.1239 54.2111 37.3563C55.0489 36.5887 56.5024 35.1956 56.8398 35.2684C57.1771 35.3411 56.3542 36.9219 56.5989 36.5001C56.8436 36.0783 58.1807 33.606 58.9692 32.2632C59.7577 30.9203 59.9572 30.7818 60.0689 32.3024C60.1806 33.8231 60.1985 37.0071 60.152 39.0782C60.1055 41.1493 59.9941 42.0109 59.9503 42.2031C59.6241 43.6335 60.2287 38.8713 60.1717 38.22C60.1346 37.7969 59.5242 39.9734 59.1057 41.082C58.9911 41.3855 59.6638 39.6353 59.5754 39.5916C57.1874 38.4124 57.5085 45.628 56.928 48.1927C56.7145 49.136 56.7181 49.3634 56.7702 49.2937C57.0519 48.9166 58.0576 46.2861 59.5346 43.1889C59.8008 42.6305 58.8719 45.5945 57.6468 49.0315C57.3035 49.9946 57.819 49.4645 57.9715 49.4109C58.3573 49.2752 56.5685 52.462 55.0215 55.294C54.6716 55.9346 55.4146 55.0616 55.5985 54.6645C55.7825 54.2675 55.4383 54.3993 55.0417 54.6585C54.645 54.9178 54.2064 55.3005 54.0692 55.446C54.0291 55.4886 54.8691 54.8738 55.682 54.2516C57.0845 53.178 53.0896 58.2904 52.7728 58.5501C52.7018 58.6084 52.7405 58.3742 52.5989 58.3245C52.1397 58.1636 50.8069 58.9388 49.4809 59.5076C49.3317 59.5716 49.7805 59.0617 49.5346 58.9945C47.2589 58.3719 46.2363 58.8234 41.2561 58.8393C39.5285 58.8449 37.5347 57.2658 35.5018 56.7196C35.1698 56.6305 36.8951 56.269 38.2909 55.9334C39.1611 55.7242 36.7936 54.5684 36.6269 54.2606C36.0384 53.174 39.3243 53.9708 39.7616 54.0656C39.9734 54.1115 40.1514 54.2066 39.8402 54.2646C39.529 54.3225 38.7198 54.3541 39.04 54.3873C42.66 54.7623 43.5284 54.7399 43.7014 54.9301C43.9865 55.2435 42.9352 55.5486 42.6984 55.812C42.413 56.1294 43.4435 56.5999 43.439 56.8947C43.3981 59.5927 39.6207 56.8561 38.1326 56.1341C34.6516 54.4453 32.9546 54.1651 31.2063 53.0771C30.8882 52.8791 30.7606 52.7214 30.7873 52.6263C30.8614 52.3617 32.6513 52.8615 34.5026 53.153C35.4186 53.2973 33.5783 51.2507 33.5505 50.956C33.5184 50.6163 35.0396 51.4882 36.1974 52.1888C37.8741 53.2033 30.9277 50.3175 30.3364 49.8718C30.1708 49.7469 29.8285 50.202 29.6276 50.2195C28.5656 50.3123 29.3967 47.9481 29.5148 47.7236C29.6418 47.4822 29.3093 48.5853 29.0367 48.8949C28.2359 49.8042 31.7724 45.803 33.6215 44.6865C33.9681 44.4772 34.1941 45.2609 34.6265 45.3424C35.1748 45.4458 36.7671 44.9748 38.113 44.9847C38.4661 44.9873 37.0546 46.3593 36.4874 46.796C35.9201 47.2328 35.9602 47.044 36.3196 46.5732C36.6791 46.1023 37.3567 45.355 37.1362 45.3387C35.6014 45.2253 34.1087 47.0494 33.3372 47.2389C33.0649 47.3058 33.014 46.8803 33.0561 46.5505C33.1427 45.8719 33.7407 44.9372 34.1566 44.1393C34.2456 43.9685 33.8889 44.202 34.1032 44.0194C36.3966 42.0655 38.6052 40.8883 39.992 40.2684C40.5183 40.0331 40.7257 40.0573 40.3918 40.6875C40.0578 41.3178 39.1867 42.5786 38.92 43.1419C38.6533 43.7052 39.0173 43.5329 39.2969 43.3533C39.5764 43.1738 39.7605 42.9923 39.6916 42.9812C39.2721 42.9136 38.4939 43.739 38.1277 44.1012C35.9514 46.2541 42.7173 40.8207 43.2259 40.7681C43.4647 40.7434 43.618 41.1345 43.6786 41.4348C43.7979 42.0262 43.5256 42.7119 43.612 43.2689C43.7273 44.0121 46.4227 43.1563 48.6994 42.7227C49.4152 42.5863 49.2684 42.8067 48.4486 43.4512C46.1745 45.2391 44.2294 46.5805 43.7205 46.7541C41.9713 47.3508 46.5697 43.54 46.7373 43.3234C46.9371 43.0653 45.7046 43.4766 45.0309 43.5188C44.7483 43.5365 44.6696 43.041 44.663 42.6801C44.6308 40.9238 45.6121 39.2619 45.7395 38.6851C45.8157 38.3403 46.3564 38.7589 46.5052 38.5303C47.322 37.2756 46.5952 35.6713 46.5045 35.0999C46.4557 34.7921 46.3318 34.4611 46.291 35.0367C46.2502 35.6123 46.2786 37.1078 46.3341 37.2944C46.3896 37.4811 46.4714 36.3136 46.5086 35.8366C46.5354 35.4931 46.0473 37.2642 45.7076 37.5018C45.4999 37.6471 45.5805 36.3536 45.6743 36.3014C45.768 36.2493 45.9645 37.097 45.9728 37.0239C46.0981 35.9241 45.7706 31.7185 46.2103 27.65C46.6475 23.6048 47.6183 35.0713 47.6886 34.4858C47.8765 32.9206 48.7779 31.6063 49.0914 31.5533C49.7788 31.4371 49.8739 35.3691 50.3477 38.756C50.4447 39.449 50.6868 37.9625 50.7631 37.9451C50.8395 37.9277 50.8544 39.3996 50.9832 39.2589C51.112 39.1182 51.3542 37.3202 51.7543 37.3669C52.1543 37.4135 52.7049 39.3591 53.0568 40.2108C53.4087 41.0625 53.5452 40.7614 53.7269 40.0885C53.9087 39.4156 54.1315 38.3802 54.2946 37.7478C54.4578 37.1154 54.5545 36.9174 54.6885 38.2518C54.8225 39.5862 54.9909 42.4588 55.0776 42.7694C55.1643 43.08 55.1643 40.7415 55.0849 39.7614C55.0379 39.1812 53.7137 41.4805 52.2631 44.0385C51.8149 44.8288 51.8168 44.5083 52.0085 43.9879C52.2001 43.4674 52.547 42.7364 52.7982 42.4767C53.0494 42.2171 53.1944 42.4511 53.3219 42.8565C53.6228 43.8129 54.1616 40.3558 54.9716 34.1169C55.2546 31.9369 55.3962 31.7748 55.4725 31.8481C56.4182 32.757 54.4551 35.7644 52.8279 38.0027C52.2051 38.8592 51.4499 39.2158 50.9602 39.2322C48.6897 39.3082 50.7994 33.3084 51.2458 31.6565C51.3783 31.1665 51.6301 31.4953 51.875 32.2274C52.1199 32.9594 52.4295 34.1133 52.604 34.8101C52.8286 35.7071 52.866 31.7702 52.8896 25.3463C52.898 23.0753 52.8543 22.8119 52.8174 22.7832C52.6591 22.66 52.6975 24.3378 52.6968 24.9973C52.6963 25.4869 52.6999 22.3444 52.8187 22.0185C53.2637 20.7971 53.4847 25.116 53.6146 24.7714C53.8155 24.2381 53.7216 22.8424 53.7361 22.3365C53.75 21.8503 53.2476 23.4956 52.5732 23.9715C52.2377 24.2083 51.6798 24.1165 51.1444 23.9107C50.2902 23.5822 50.4233 22.5262 50.2558 22.2863C49.788 21.6163 48.9549 22.8259 48.4931 22.7055C48.2661 22.6463 48.0709 22.5336 47.9629 22.243C47.4568 20.8809 48.2903 19.878 48.9475 18.9122C49.4584 18.1616 49.9176 17.5698 50.2961 17.3086C51.3967 16.5492 53.1891 16.5285 53.5612 16.5101C54.6207 16.4579 51.3059 16.6094 50.8965 16.5635C50.7328 16.5452 50.7778 16.2255 50.8421 16.0062C50.9672 15.5794 51.5752 15.1264 52.3728 14.6966C52.9382 14.392 53.4866 14.5875 53.9395 14.831C54.9525 15.3755 55.7235 16.0977 56.7753 16.302C56.9998 16.3456 57.1887 16.2366 57.3407 15.8573C57.4927 15.4781 57.6063 14.7808 57.7049 14.7231C58.2002 14.4333 57.9661 16.1228 57.9248 16.5694C57.9047 16.7861 57.8009 16.9703 57.6383 17.0391C57.4757 17.1078 57.2354 17.0523 57.0105 16.916C55.6906 16.1159 55.0465 14.1043 54.9148 13.3164C54.868 13.0366 55.6729 13.5947 55.9707 13.8602C56.0443 13.9257 55.814 13.9541 55.7103 13.8549C55.6065 13.7557 55.5988 13.5545 55.6779 13.3728C55.757 13.1911 55.9231 13.0349 56.1557 12.9441C56.3884 12.8534 56.6826 12.8327 56.8989 12.92C57.1152 13.0072 57.2448 13.2029 57.3097 13.4244C57.5865 14.3698 56.9938 15.3565 56.5513 16.5509C55.67 18.9299 54.0892 20.8271 52.6141 24.0475C51.1893 27.1579 52.3551 29.2594 52.2816 28.6837C52.2189 28.1925 51.948 27.7455 51.5773 27.4694C51.1776 27.1717 50.3644 28.3992 49.7045 29.2817C49.5194 29.5292 49.5337 29.2825 49.6419 28.9308C50.3622 26.5888 51.9527 24.5071 55.5397 22.5981C56.4192 22.1301 57.0249 22.2146 57.2831 22.3187C57.5414 22.4228 57.4815 22.6464 57.2548 22.9253C57.0281 23.2042 56.6364 23.5317 55.055 24.4619C53.4736 25.392 50.7143 26.9149 48.8418 28.5337C45.5874 31.3471 45.092 33.8203 45.0205 34.4568C44.8311 36.1407 44.131 38.2519 43.9395 39.8154C43.9022 40.12 44.0257 40.3899 43.8671 40.2947C42.4666 39.4533 41.2173 38.4834 40.0828 38.169C38.9467 37.8542 39.5407 41.7555 39.1285 42.895C38.9723 43.3264 38.2085 42.3435 37.8226 42.1161C36.4793 41.3246 35.5063 47.5057 33.5577 50.5233C33.2883 50.9405 33.0283 50.7217 32.878 50.5659C32.5855 50.2625 32.057 49.7399 31.5241 49.259C31.3881 49.1362 31.6032 49.1845 31.7172 49.433C32.0054 50.0613 31.7552 50.8173 31.4364 51.3024C31.1189 51.7857 30.5626 51.9084 30.1545 51.9838C29.6925 52.0692 29.2026 51.8008 28.7983 51.4667C28.6085 51.3098 28.4945 51.1279 28.5665 51.1247C30.7371 51.0286 33.1749 54.6262 33.9898 55.0587C34.3833 55.2676 35.2907 55.5536 36.7056 55.9723C38.1942 56.4129 40.5439 56.8983 43.4454 57.2825C47.139 57.7717 48.6671 57.1846 51.286 56.6434C53.4923 56.1874 53.8977 55.4257 54.1962 55.1519C54.3486 55.0121 54.5296 54.9017 54.3927 55.1599C53.4087 57.0162 52.4553 57.464 51.4301 57.9216C50.4637 58.353 49.5031 58.2807 47.0615 58.7131C46.3279 58.8431 45.5894 58.7904 45.6763 59.0853C46.0566 60.3762 47.8334 60.6263 48.2149 60.6565C48.6147 60.6882 50.5527 58.8444 53.6179 55.8703C57.1658 52.4278 58.2467 49.7365 59.1683 48.0232C59.6859 47.061 60.0075 45.9126 60.3531 44.1737C60.9881 40.9787 61.2146 37.4548 61.5286 35.0488C61.6539 34.0889 61.8543 33.6807 61.9676 33.3038C62.0809 32.9269 62.1378 32.5992 62.179 33.1271C62.2201 33.655 62.2438 35.0486 62.0605 37.1745C61.8772 39.3004 61.4863 42.1164 60.9563 44.4558C60.0095 48.6346 58.9456 50.9325 58.5483 52.1941C57.3786 55.136 56.7124 56.134 56.2409 56.7024C56.02 56.9576 55.8364 57.1451 55.2894 57.3549" stroke="#F75691" stroke-width="3" stroke-linecap="round"/>
<path d="M9.13184 61.3842C9.13184 61.3623 9.13184 61.3404 11.851 58.9445C14.5701 56.5485 20.0083 51.7792 22.9109 49.2604C25.8135 46.7416 26.0157 46.6177 26.2506 46.4938C26.4856 46.3698 26.7472 46.2494 27.4312 46.041" stroke="black" stroke-width="3" stroke-linecap="round"/>
<path d="M57.905 20.2484C57.9117 20.2414 57.9185 20.2344 59.897 18.5789C61.8755 16.9234 65.8257 13.6195 68.6475 11.099C71.4692 8.57852 73.0428 6.9415 74.6641 5.25488" stroke="black" stroke-width="3" stroke-linecap="round"/>
<path d="M20.4768 42.1087C20.485 42.1968 20.5931 42.4844 20.9319 42.8497C21.2258 43.1665 21.7659 43.6902 22.2408 44.3638C22.5014 44.7335 22.5174 45.0165 22.6255 45.1953C22.6718 45.272 22.7169 45.3098 23.2928 44.5767C23.8687 43.8436 24.9782 42.3357 25.7494 41.3743C26.5207 40.4129 26.9201 40.0437 27.2426 39.7671C27.7852 39.3018 28.0994 39.0374 28.1978 38.9184C28.2467 38.8593 27.9291 39.6132 27.2806 40.6711C26.7174 41.5901 26.3035 42.2356 26.0623 42.6887C25.6547 43.4547 25.1375 43.8153 24.872 44.0467C24.8214 44.0908 24.7245 44.0677 24.6545 44.0457C24.305 43.9359 24.2435 43.4105 24.1473 43.3418C24.0367 43.2629 23.8589 43.2493 23.7183 43.1286C23.5911 43.0194 23.5388 42.8233 23.4892 42.1567C23.3721 40.5834 23.4634 39.464 23.285 39.6818C23.0689 39.9455 22.7243 40.6122 22.5194 40.9159C22.3145 41.2196 22.2922 41.1635 22.3692 40.6056C22.4463 40.0476 22.6234 38.9895 22.7228 38.4138C22.8221 37.8382 22.8383 37.7771 22.7949 37.7349C22.452 37.4017 21.6778 37.6068 21.2936 37.4988C21.142 37.4562 21.0474 37.3623 20.9654 37.2608C20.6059 36.8162 20.6539 35.4239 20.6667 34.8727C20.6737 34.5703 21.0046 34.2021 21.2338 33.9591C21.4991 33.6777 22.0936 33.5561 23.3592 32.9212C24.3386 32.4299 25.0187 32.2336 25.2378 32.2143C25.7667 32.1678 26.3665 32.3859 27.6118 32.6271C28.1626 32.7339 28.7701 32.838 29.5274 33.1311C30.446 33.4865 31.1276 33.9505 31.5019 34.2408C31.6652 34.3674 31.7579 34.4721 31.7732 34.5472C31.8703 35.0219 30.3135 34.6758 29.627 34.4172C28.7563 34.0893 28.3338 33.8381 27.8503 33.7805C27.5013 33.7389 27.0985 33.8277 26.817 33.9362C26.7224 33.9727 26.7657 34.0486 27.6312 34.3215C28.4967 34.5943 30.1934 35.0814 31.1199 35.3562C32.1561 35.6634 32.3322 35.7745 32.5175 35.918C32.8001 36.1369 33.1376 36.5099 33.7186 37.0653C34.094 37.4242 34.6544 37.9165 35.0072 38.2571C35.36 38.5978 35.4937 38.7659 35.6035 38.9247C35.7133 39.0834 35.7951 39.2278 35.2446 39.135C34.6942 39.0423 33.5089 38.708 32.1664 38.4357C30.8239 38.1635 29.3601 37.9634 28.5634 37.8488C27.7666 37.7342 27.6813 37.7111 27.6661 37.7074C27.6509 37.7037 27.7083 37.7201 28.6386 38.2274C29.5689 38.7347 31.3703 39.7324 32.4446 40.3783C33.8516 41.2241 34.1723 41.6374 34.2214 41.6809C34.3756 41.8178 33.9472 41.0859 33.7679 40.4919C33.5479 39.7629 33.5481 39.0811 33.5379 38.686C33.5325 38.4754 33.1792 37.6458 32.6755 36.44C32.3745 35.7195 32.3689 35.3063 32.3968 35.198C32.4214 35.1023 32.6136 35.1333 32.7824 35.1422C32.9855 35.1529 33.2351 35.2405 33.9674 35.6594C34.572 36.0052 35.6026 36.7009 36.1287 37.0185C36.6548 37.336 36.6331 37.2746 36.4515 37.038C36.2699 36.8014 35.929 36.3914 35.5428 35.9879C34.297 34.6861 33.9513 34.6386 33.8022 34.5908C33.7666 34.5794 33.9663 34.5766 34.2801 34.6579C34.9569 34.8332 35.7649 35.2299 36.4282 35.6224C37.1152 36.0288 37.2528 36.3095 37.3417 36.5134C37.5077 36.8943 36.3853 36.3547 35.64 35.8447C35.2949 35.6085 34.8098 35.1409 34.4158 34.8338C34.0219 34.5266 33.7555 34.365 33.2479 34.1385C32.7403 33.912 31.9996 33.6257 31.5201 33.4624C30.8546 33.2359 30.5296 33.2354 30.0957 33.1817C29.773 33.1418 29.2503 33.0206 28.6347 32.9611C28.0192 32.9016 27.3287 32.8932 26.8819 32.9036C26.2518 32.9184 25.5943 33.1709 24.5811 33.6615C24.0259 33.9304 23.4393 34.3412 22.9669 34.6086C21.7461 35.2994 21.2449 35.2904 20.9784 35.3763C20.7366 35.4541 20.4725 36.0204 20.2608 36.3813C20.1611 36.5511 20.0996 36.8135 20.0385 37.4172C19.9926 37.871 19.9974 38.6302 20.0016 39.1918C20.0059 39.7533 20.0301 40.0957 19.9907 40.1861C19.7354 40.7706 19.5316 38.471 19.5557 38.0061C19.5683 37.762 19.7258 37.2138 19.8736 36.7059C19.9982 36.2776 20.3145 35.7086 20.7045 35.1355C21.059 34.6145 21.5665 34.345 21.8012 34.1251C21.8695 34.0611 21.7688 34.0379 21.6802 34.052C21.2377 34.1223 20.8148 34.7879 20.2711 35.2845C19.9602 35.5685 19.813 35.975 19.7359 36.2648C19.659 36.5537 19.5794 37.2559 19.5018 38.1764C19.399 39.396 19.6019 40.06 19.7184 40.3144C19.9546 40.6527 20.1696 40.9501 20.5501 41.4597C20.6247 41.5648 20.6474 41.6174 20.6708 41.6715" stroke="#F75691" stroke-width="3" stroke-linecap="round"/>
<path d="M61.0338 22.8853C61.0318 22.8598 61.0365 22.7774 61.1054 22.601C61.1299 22.538 61.1864 22.4241 61.2701 22.2749C61.3156 22.1939 61.3335 22.1272 61.3497 22.0094C61.3759 21.8196 61.3626 21.688 61.3756 21.661C61.4111 21.5872 61.5015 21.5559 61.5476 21.5254C61.6737 21.442 61.5782 21.1423 61.5894 21.0837C61.5982 21.0377 61.6344 21.0096 61.6574 20.9937C61.7305 20.943 61.942 20.9244 62.0522 20.9229C62.0671 20.9226 62.0751 20.9417 62.0969 21.0599C62.1188 21.178 62.153 21.4015 62.2245 21.6698C62.2961 21.9381 62.404 22.2444 62.4779 22.4781C62.5517 22.7118 62.5881 22.8636 62.6165 22.9734C62.6448 23.0833 62.664 23.1466 62.6728 23.3487C62.6817 23.5508 62.6797 23.8896 62.6757 24.0841C62.6716 24.2786 62.6656 24.3184 62.6427 24.4025C62.5848 24.6149 62.5334 24.8049 62.5239 24.943C62.5121 25.1143 62.5145 25.2404 62.5073 25.3292C62.4953 25.4773 62.5141 25.6129 62.5475 25.7728C62.5716 25.8893 62.6103 26.0776 62.6453 26.5822C62.6803 27.0867 62.7105 27.9018 62.7415 28.7416" stroke="#F75691" stroke-width="3" stroke-linecap="round"/>
<path d="M54.2376 10.4783C43.3292 12.9718 42.7376 36.4778 42.7376 36.4778C42.7376 36.4778 30.5691 25.506 21.2378 30.4776C2.73775 40.3341 40.7376 69.9775 54.2376 60.4778C67.7377 50.9781 71.7376 6.47799 54.2376 10.4783Z" stroke="black" stroke-width="3"/>
</svg>
