<svg width="111" height="99" viewBox="0 0 111 99" fill="none" xmlns="http://www.w3.org/2000/svg">
<path d="M29.4995 91.926C29.4995 91.9077 29.6647 91.5707 30.636 90.2529C31.4421 89.2626 32.8839 87.6195 33.7413 86.6873C34.5986 85.7551 34.8278 85.5836 35.1622 85.3662" stroke="black" stroke-width="3" stroke-linecap="round"/>
<path d="M63.8743 86.5547C63.8743 86.5639 63.8743 86.573 63.8743 88.0736C63.8743 89.5741 63.8743 92.5656 63.9003 94.2505C63.9264 95.9353 63.9785 96.2228 64.1475 96.7545" stroke="black" stroke-width="3" stroke-linecap="round"/>
<path d="M88.4961 72.7109C88.4961 72.73 88.4961 72.749 89.7835 74.149C91.071 75.549 93.6458 78.3294 95.2713 80.013C96.8967 81.6967 97.4947 82.1992 98.1932 82.7439" stroke="black" stroke-width="3" stroke-linecap="round"/>
<path d="M93.6751 43.8739C93.665 43.8637 93.6548 43.8535 96.1172 43.9722C98.5797 44.0909 103.515 44.3388 108.6 44.5941" stroke="black" stroke-width="3" stroke-linecap="round"/>
<path d="M80.7829 20.7784C80.7734 20.7594 80.7639 20.7403 82.0225 19.2928C83.2811 17.8453 85.8081 14.9698 87.2582 13.3744C88.7084 11.779 89.0051 11.5508 89.5869 11.2432" stroke="black" stroke-width="3" stroke-linecap="round"/>
<path d="M49.3438 1.5C49.3242 1.5 49.3239 3.5713 49.3948 6.96551C49.456 8.28843 49.5681 8.80019 49.6852 9.2184C49.8023 9.63661 49.921 9.94576 50.4356 10.8842" stroke="black" stroke-width="3" stroke-linecap="round"/>
<path d="M24.4866 3.82227C24.5669 4.17134 25.0204 5.35909 29.3831 11.7897C30.8486 13.7134 31.5855 14.4396 32.1432 14.8594C32.4081 15.0463 32.6363 15.1804 33.1863 15.5053" stroke="black" stroke-width="3" stroke-linecap="round"/>
<path d="M11.8745 34.2598C11.9479 34.2598 14.3157 34.2598 18.1424 34.2996C20.2318 34.4191 21.1788 34.6189 21.8912 34.8924C22.2673 35.0483 22.6728 35.2388 23.187 35.4936" stroke="black" stroke-width="3" stroke-linecap="round"/>
<path d="M1.5 76.9583C1.92505 76.932 3.13959 76.7273 6.44947 75.2591C9.24038 73.9423 14.2875 71.4648 17.0675 70.1407C19.8475 68.8165 20.2075 68.7208 20.7045 68.6172" stroke="black" stroke-width="3" stroke-linecap="round"/>
<path d="M34.6963 37.8703C34.7507 37.8152 36.6255 36.885 40.4426 35.1128C44.3855 33.2822 48.6969 31.4994 50.5545 30.387C53.3503 28.7128 42.4413 33.0071 38.9893 33.6923C37.7006 33.9481 37.3656 34.0832 37.307 33.8645C36.3706 30.3679 43.2222 26.8812 44.678 25.9971C45.1329 25.7209 45.7857 25.4539 46.0358 25.477C46.4276 25.5132 45.1479 27.3505 44.3418 28.6776C42.6959 31.3871 50.036 25.0612 52.8851 23.9587C53.6053 23.68 54.4456 23.575 52.6616 24.8701C50.8776 26.1652 46.4674 28.9348 44.3693 30.2886C42.2712 31.6425 42.6187 31.4966 44.223 30.6569C45.8273 29.8172 48.6779 28.2882 49.6594 27.6868C49.8544 27.5674 44.603 30.2392 39.1157 33.4664C39.0296 33.517 41.4257 32.1812 44.9507 30.9532C47.405 30.0981 51.3423 29.177 52.2179 29.4823C53.0936 29.7876 50.822 31.4508 51.4232 31.1783C55.8462 29.1739 59.7991 26.0358 60.6122 25.7631C64.0399 24.6139 52.9264 33.2099 52.5463 33.5199C52.314 33.7093 53.9719 32.5762 53.4816 32.5908C47.4939 32.7692 45.777 34.9045 45.0645 34.7307C44.7501 34.654 44.9025 33.9622 45.3239 33.2871C47.5308 29.7514 51.1638 28.2315 52.6295 27.5522C54.4067 26.7284 49.3172 29.861 48.4947 30.146C46.5793 30.8099 52.6678 29.3992 53.98 29.3754C54.3374 29.369 52.3241 29.1719 51.2303 28.8345C50.7897 28.6986 50.6918 28.3575 50.7006 28.1042C50.718 27.6008 51.7173 26.8576 52.6791 26.0999C53.7344 25.2686 48.8181 28.0823 47.9274 28.3153C47.65 28.3879 47.6904 28.0274 47.9724 27.6298C49.6508 25.2638 53.1487 23.8079 55.6835 23.0637C56.6546 22.7786 57.5006 22.866 57.9306 23.0124C58.3324 23.1491 55.5042 24.7429 51.6777 26.5135C47.2769 28.55 45.7669 28.5259 44.2393 29.4004C40.9813 31.2655 40.4028 32.9438 39.9294 33.381C39.0163 34.2242 39.6142 30.7537 39.6251 30.4285C39.6952 28.3245 36.1738 33.2354 35.1357 35.1946C34.1214 37.1089 33.8519 40.5881 33.9836 45.8488C34.0621 48.9842 34.655 53.0437 35.1294 56.0077C35.8876 60.7438 37.0611 64.1423 37.9622 66.8792C39.0416 70.1581 41.4198 72.4258 43.3209 73.4511C47.8547 75.8965 51.5222 74.9272 55.4115 74.122C58.1452 73.556 61.5324 70.8434 65.6959 67.5333C67.8567 65.8154 69.7987 63.6399 71.1544 62.0875C72.5102 60.5351 73.14 59.5746 74.188 57.6631C76.7651 52.9626 78.6179 48.7963 79.3198 46.7784C80.1766 44.3151 79.4571 41.1328 78.8883 39.3808C78.0428 36.7763 74.6102 33.7239 70.6949 31.3382C66.6706 28.886 63.2713 28.4119 62.5115 28.2511C61.7546 28.091 58.9575 28.1459 55.0667 28.2788C51.3436 28.406 46.9871 31.6339 44.0403 33.9764C42.7216 35.0247 41.0575 37.5561 38.8398 41.0237C35.2024 46.7113 35.1919 49.3102 35.297 50.1333C35.5506 52.121 38.033 52.8704 39.2879 53.1162C39.5715 53.1717 39.8199 53.0166 40.0806 52.8055C41.601 51.5747 42.1394 47.3888 42.5206 40.7865C42.6369 38.7728 41.856 37.7518 41.2075 37.1055C40.6343 36.5343 39.9224 36.388 39.3064 36.297C38.6112 36.1943 37.9883 36.3617 37.5466 36.6908C36.513 37.4611 36.7979 40.3076 37.0468 42.3557C37.1316 43.0528 37.7397 43.4381 38.2508 43.6799C38.5325 43.8131 38.9212 43.8104 39.2463 43.6472C40.6099 42.9628 40.4437 40.049 40.2769 37.9334C40.2158 37.1588 39.6228 36.6533 39.1563 36.3378C38.9295 36.1843 38.6541 36.1603 38.3865 36.1752C37.1654 36.2434 36.0921 38.7058 35.1528 41.6375C34.6884 43.0871 34.7446 44.5943 34.7635 45.9252C34.7804 47.114 35.4382 48.1097 36.2998 48.9465C37.2025 49.8232 38.6055 50.0853 40.0632 50.1498C41.6507 50.22 43.2898 49.1839 44.8144 47.7915C47.7269 45.1316 47.7877 42.0147 47.6865 40.5428C47.6274 39.6831 46.0347 39.8017 45.0882 39.9087C42.7622 40.1718 41.1762 44.0005 40.0607 47.2502C39.5431 48.7581 39.7812 50.1766 39.8883 51.1977C39.9782 52.0551 40.5895 52.6652 41.2857 53.1065C41.6337 53.3271 42.0609 53.3799 42.5462 53.2478C43.6551 52.9457 44.8985 51.2612 46.3021 48.9118C47.7369 46.5102 48.4825 43.227 49.1022 40.1305C49.4806 38.2395 49.3688 37.1869 49.2049 36.5315C49.1294 36.2299 48.881 36.0545 48.5979 35.9165C47.9893 35.6198 47.1619 35.7604 46.264 36.2407C43.6214 37.6544 42.7274 41.6674 42.1989 44.2633C41.9519 45.4765 42.2098 46.5807 42.5341 47.3979C42.852 48.199 43.9079 48.5164 44.8563 48.781C45.3312 48.9134 45.8307 48.881 46.3402 48.7198C48.8145 47.9371 49.7615 43.2614 50.2298 39.7181C50.4087 38.3648 49.6906 37.2712 48.8741 36.4973C48.4721 36.1163 47.898 35.9979 47.3508 36.0008C44.8219 36.0141 41.6682 41.9986 39.9773 45.9502C39.5023 47.0605 39.5701 48.0213 39.6428 48.6617C39.6786 48.9767 39.9732 49.2138 40.3371 49.3188C41.1605 49.5562 42.3391 49.0095 43.571 48.3C44.7902 47.5979 45.5783 46.3883 46.2122 45.2157C46.8325 44.0681 46.8055 42.8189 46.5731 41.7568C46.3362 40.6737 45.3607 39.886 44.4268 39.2383C43.5395 38.6229 42.5419 38.4838 41.7361 38.5176C40.0374 38.5887 39.4313 43.1122 38.9599 46.1732C38.8809 46.6863 38.9329 47.0411 39.0822 47.2995C39.2314 47.5579 39.5236 47.7143 39.8671 47.7732C41.5242 48.0574 43.5489 45.3258 45.019 42.7029C46.2126 40.5731 45.6684 39.0671 45.4325 38.5497C45.1941 38.0272 44.321 37.9793 43.4525 38.0417C41.1784 38.205 39.1989 42.0064 38.4093 43.4929C38.2476 43.7973 40.8486 41.3073 45.0991 37.538C49.952 33.2345 53.4976 31.4089 53.7468 31.7342C54.8235 33.14 50.3347 37.1921 46.313 41.7783C43.3254 45.1853 41.3503 46.4587 40.7529 46.6253C38.5582 47.2373 40.4096 40.3052 40.2902 39.0345C40.1843 37.9061 38.3342 38.0275 37.7777 37.9214C37.2817 37.8269 37.3918 41.4625 37.1891 45.1258C37.0904 46.909 35.0114 40.5988 34.4289 38.3527C34.3538 38.0633 34.4122 37.786 34.2718 37.6572C34.1315 37.5284 33.8509 37.5471 33.6898 37.7211C33.3235 38.1167 33.8493 40.6872 34.8647 45.6114C36.1543 51.8651 37.4453 55.8087 38.2249 55.9719C40.2211 56.3898 40.9888 52.819 41.5313 52.0996C41.7183 51.8516 40.8864 55.3888 39.8446 59.0096C39.7739 59.2554 42.2113 55.9472 46.1522 51.0703C48.1188 48.6366 50.3616 46.574 51.2203 45.9232C51.5633 45.6632 48.4069 50.0704 44.4652 54.3766C43.2116 55.7461 43.3029 55.2978 45.0974 51.8057C46.8919 48.3136 50.3431 41.7499 51.4205 39.3662C52.498 36.9825 51.0971 38.9778 50.4454 39.8528C48.7869 42.08 56.9468 31.8426 58.2431 30.9579C58.6759 30.6625 58.8565 31.0561 58.4113 32.1891C56.1583 37.9226 54.8839 38.6509 54.5952 38.7816C53.4985 39.2785 55.593 35.1393 58.202 32.1373C59.6058 30.5218 61.5844 29.8402 63.0822 29.3169C64.2981 28.8921 65.3144 29.117 65.9815 29.5307C66.712 29.9836 66.3544 31.6831 65.6411 33.7142C64.7852 36.151 62.6238 38.2489 60.5799 40.2035C57.1538 43.4797 54.4371 44.5046 53.1528 44.7738C51.8531 45.0463 54.623 40.7834 57.2974 37.7004C59.3594 35.3233 61.0446 35.1853 61.5763 35.157C61.8069 35.1447 61.9228 35.4434 61.744 35.892C61.2631 37.099 59.5035 38.7737 57.2528 40.8948C52.9228 44.9754 48.9358 46.3211 46.6975 46.6639C46.306 46.7239 46.1188 46.2072 46.1043 45.6374C46.0692 44.2622 47.0935 42.4444 48.564 40.4383C50.1506 38.2741 52.5018 36.8928 54.628 35.8801C58.1899 34.1835 60.7866 35.003 61.845 35.663C62.1193 35.8341 62.103 36.3165 62.0294 36.807C61.6284 39.4812 57.5383 41.8837 54.3651 43.6C53.2228 44.2179 52.3184 44.2746 51.8996 44.1046C51.3314 43.874 52.4276 42.0834 54.0097 40.0161C55.8631 37.5944 58.7151 35.9396 61.1844 34.5789C63.2197 33.4574 64.7649 33.2134 65.5407 33.3065C65.8802 33.3472 65.9998 33.772 65.8208 34.2312C64.2544 38.2477 57.5575 40.59 55.6862 41.1044C55.3305 41.2022 55.0483 40.6701 55.0037 40.154C54.7749 37.5061 57.5398 35.4967 58.9898 34.5103C59.2561 34.3292 59.553 34.4376 59.6579 34.6427C60.358 36.0113 57.411 39.086 56.1327 40.2874C54.9007 41.4452 58.1604 35.2076 60.6944 32.6373C62.4254 30.8814 64.0122 31.1038 64.5257 31.1362C64.7802 31.1522 64.9972 31.3377 65.1307 31.5586C65.8059 32.6751 64.4397 34.9463 63.1298 36.5209C62.8572 36.8485 62.5255 36.9955 62.2523 37.1156C61.9792 37.2357 61.7264 37.2777 61.6206 37.0269C61.3106 36.2918 61.7773 35.3718 62.1369 34.809C62.4837 34.2663 63.0975 33.887 63.1993 33.9201C64.4521 34.3273 59.2007 36.9964 55.1851 39.4049C50.9767 41.929 48.4878 41.9804 47.3776 41.6932C46.9116 41.5726 47.0094 40.2825 47.0685 38.8785C47.1778 36.2806 49.6518 34.3633 50.6022 33.7046C50.7938 33.5719 51.068 33.9655 51.079 34.3283C51.1414 36.4026 48.1079 37.9211 46.3603 38.6507C46.0059 38.7987 45.6678 38.7544 45.4296 38.4179C44.0264 36.4355 45.5996 33.4619 47.7755 29.8071C49.2661 27.3033 50.6849 26.6501 52.5517 25.7837C54.3113 24.9669 56.0685 24.5163 58.6036 23.7252C62.9095 22.3814 65.8737 23.3075 67.429 23.978C67.6244 24.0623 67.2634 24.2176 66.9794 24.2349C65.2292 24.3414 62.6591 22.6626 59.2559 22.7621C53.7906 22.9219 50.8753 26.6607 50.73 26.8673C49.6293 28.4326 53.9685 24.9383 54.8971 24.8186C56.3897 24.6262 58.9543 25.047 61.5839 25.5053C62.5837 25.6796 62.8952 25.7863 61.7073 25.8682C57.8266 26.1358 52.9962 26.4423 49.4559 27.1604C45.2513 28.0133 43.4937 30.0523 42.6835 30.5729C42.4378 30.7307 42.3853 30.3548 42.4549 30.0169C42.7759 28.4577 44.6676 26.733 46.5281 25.3899C48.38 24.053 52.3147 24.3691 56.4777 24.1482C60.5337 23.9329 64.1614 24.3927 66.0258 24.8424C67.3268 25.1563 68.7576 26.0742 71.004 27.8414C74.1259 30.2973 76.0523 33.0884 76.9941 34.8973C78.5903 37.9631 78.0885 39.5886 77.6593 41.5644C77.3715 42.8888 75.0668 45.1343 72.2381 48.1265C68.7653 51.8 65.9397 53.068 63.4623 53.7859C61.1243 54.4635 59.1787 53.428 57.7624 52.2995C56.9573 51.658 56.5443 50.4373 56.1759 48.4572C55.5569 45.129 56.0749 41.8142 56.6759 39.5259C57.2682 37.2706 58.8684 35.6357 60.395 34.4258C61.859 33.2656 63.7277 33.1564 65.2179 33.1193C66.516 33.087 67.5256 33.7847 68.2822 34.6489C70.0531 36.6713 69.4047 41.0353 67.5215 46.5096C66.3544 49.9023 63.1409 52.1682 60.5604 54.1103C55.9546 57.5765 51.9068 57.2699 50.4128 57.2351C49.7467 57.2196 49.2948 56.8849 48.9664 56.3495C48.2143 55.1231 48.5882 53.016 49.4919 50.6892C50.4742 48.1599 52.9659 46.104 55.4768 44.0738C59.9746 40.437 63.9333 40.4088 65.8708 40.7959C66.2773 40.8772 66.4299 41.3954 66.4455 42.0087C66.483 43.4847 65.1924 45.6105 63.1353 48.1464C60.8269 50.9922 57.4488 52.9285 54.5175 54.6086C50.1237 57.127 47.5932 57.043 46.671 57.067C46.2854 57.0771 46.0792 56.8432 46.1003 56.3998C46.1566 55.2173 47.5789 53.2955 49.6088 50.8504C51.7417 48.2814 54.4603 46.3423 56.9313 44.7123C60.8403 42.1338 63.2566 42.4647 64.1694 42.6101C64.5856 42.6764 64.8282 43.032 64.9918 43.5699C65.3828 44.8555 64.8451 46.9341 63.6449 49.5145C62.2247 52.5681 59.3017 55.0038 56.5889 57.2667C53.9816 59.4417 51.0499 60.5883 48.7296 61.4558C46.9556 62.119 45.6073 62.0402 44.7829 61.7526C44.3802 61.6121 44.2479 61.03 44.2831 60.2887C44.3667 58.5246 45.5872 56.4325 47.223 54.2485C48.9844 51.8966 51.4504 50.1331 53.5991 48.6577C56.6009 46.5965 58.3043 46.7055 58.6693 46.8534C59.2416 47.0854 55.9525 49.7245 54.0828 51.3579C50.5977 54.4026 61.0677 46.5205 60.1319 46.9088C58.7323 47.4895 55.1666 50.2741 51.1714 53.2445C50.7063 53.5903 53.9984 49.755 58.6973 45.4524C60.5522 43.754 61.5023 43.2313 61.9721 43.0853C62.4467 42.9377 59.5573 47.6104 57.2914 51.6011C56.9791 52.1511 62.154 47.164 64.3919 44.6612C68.2454 40.3516 68.9197 36.7797 69.0736 36.3868C69.1734 36.1319 66.9918 37.2581 64.6959 38.3793C63.9903 38.7239 64.1015 38.3445 64.5985 37.7297C65.0955 37.1148 65.9452 36.2074 66.3786 35.9554C66.7769 35.7239 66.3182 37.6928 65.8009 39.2301C65.6652 39.6331 66.1661 39.352 66.4801 39.0835C67.0274 38.6156 67.3729 37.9873 67.4718 37.2324C67.693 35.5439 65.3417 34.7249 64.322 33.2685C62.7638 31.0432 63.0824 27.8538 63.4251 27.2335C64.2551 25.731 66.818 26.3462 68.1477 26.7462C68.4254 26.8298 68.5712 27.0843 68.5213 27.2603C68.2361 28.2661 66.3496 27.8607 65.5881 27.8531C64.9164 27.8464 68.8602 28.8189 72.2713 30.6885C75.1448 32.2634 76.4132 34.0214 76.8224 34.8616C77.0114 35.2496 76.7222 35.7054 74.0063 38.5462C71.2903 41.3871 66.0439 46.6365 65.1759 47.6492C62.7879 50.4356 71.1238 42.3079 69.8971 43.3972C69.2799 43.9453 68.7737 44.5921 68.8679 44.8298C69.175 45.6044 71.7855 43.9204 73.5699 42.9791C73.9799 42.7628 70.4241 46.8648 68.1864 49.3C67.7993 49.7212 72.2153 45.2597 73.8715 43.7356C75.5278 42.2114 75.1298 42.9343 72.9185 46.0094C70.7073 49.0845 66.6948 54.4899 64.9566 57.1416C63.2184 59.7933 63.8761 59.5274 65.8705 58.4727C67.8649 57.4179 71.1761 55.5823 74.6899 53.6544" stroke="#F4D548" stroke-width="3" stroke-linecap="round"/>
<path d="M68.7639 24.1924C69.5294 24.1924 71.9179 24.4468 75.006 26.1488C77.335 27.4323 77.9562 28.716 79.3837 30.4671C81.2207 32.7205 81.9999 38.1648 82.4747 41.4281C82.7888 43.5869 82.4907 45.396 82.2607 46.3916C81.9151 47.8882 80.3468 50.8653 77.8094 55.1519C75.1571 59.6324 72.6309 61.9608 71.467 63.1131C68.492 66.0583 66.1819 68.1138 63.0135 70.5957C61.8408 71.5142 58.4401 72.2435 55.2706 72.4733C54.5396 72.5263 58.7887 69.0862 64.4516 64.6804C69.8311 60.4951 72.6546 57.5121 73.6485 56.7225C74.1054 56.3595 74.3828 55.9748 74.8409 55.2701C75.299 54.5653 75.9081 53.527 73.5789 55.8326C71.2496 58.1381 65.9635 63.819 63.2223 66.545C60.4811 69.271 60.4451 68.87 60.5068 68.315C60.6474 67.0512 61.995 63.7618 65.2982 57.3989C67.314 53.516 70.7738 48.7208 72.5927 46.055C74.4117 43.3892 74.6779 43.1044 74.7144 43.502C74.7508 43.8996 74.5496 44.9883 73.0125 48.3662C71.4755 51.744 68.6089 57.378 68.375 58.4046C67.5897 61.8512 73.4658 51.2602 74.4125 49.722C75.0361 48.7091 76.1323 47.342 76.6002 46.9055C76.8529 46.6697 75.5198 50.2052 73.511 54.288C72.5969 56.1458 69.9164 58.5835 65.9689 62.2181C64.37 63.6903 63.6596 64.4795 63.3431 64.61C63.0265 64.7405 63.1426 64.2071 65.493 59.4835C67.8434 54.7599 72.4246 45.8623 75.0135 40.9607C77.9653 35.372 78.7348 34.5924 79.0067 34.5396C82.0963 33.9394 76.4676 41.9654 76.335 42.2195C76.1952 42.4875 76.0059 38.8847 75.5982 34.1851C75.2152 29.7698 74.1599 28.5483 73.2397 27.7601C72.2239 26.8901 69.8303 26.8667 67.475 26.3638C64.0535 25.6332 60.7944 25.8782 60.6285 25.7043C55.8051 20.6477 71.2094 25.1123 72.9178 25.7013C74.3581 26.1978 75.0696 27.4677 76.873 30.4741C81.4394 38.0863 81.0886 39.8229 81.1557 41.9738C81.1979 43.3253 80.0517 44.6368 79.1631 45.8096C78.8222 46.2597 78.531 46.2695 77.9489 45.3706C76.2516 42.7494 75.2267 40.3036 73.3186 38.3367C69.0159 33.9015 65.5953 31.1997 66.2054 31.7525C68.8442 34.1433 70.9735 36.5186 71.5277 37.1355C72.9272 38.6937 69.9682 32.0069 70.0813 31.7696C70.3568 31.1917 72.2074 33.7039 73.6781 35.6216C74.4226 36.5924 71.1179 41.3056 70.013 45.833C69.6255 47.4208 68.7778 48.2691 68.2836 48.5356C67.7402 48.8287 64.8431 51.3466 60.0896 56.1825C55.8433 60.5024 53.6505 64.3178 52.5556 66.3336C52.1425 67.0943 52.0617 67.3456 53.93 64.9636C55.7983 62.5816 59.6291 57.5647 61.5811 55.2684C63.5331 52.9721 63.4902 53.5484 62.6881 55.4178C60.5026 60.5115 58.103 64.6029 57.2649 65.7687C57.1164 65.9752 59.0009 62.4863 61.3481 58.9049C61.8427 58.1502 59.7759 62.2883 56.3307 67.6105C54.4327 70.5426 52.464 72.1506 49.9832 73.5045C49.6088 73.7088 49.5074 73.1787 49.5125 72.862C49.5313 71.7015 50.4947 70.322 51.8078 68.7705C52.7395 67.6696 55.933 65.9931 59.4573 64.1538C60.5736 63.5712 60.4824 64.0294 59.5312 65.279C56.9126 68.7188 53.9425 71.6897 52.3377 72.7932C51.8413 73.1346 51.7437 72.5759 51.8768 72.0518C52.171 70.8928 53.8631 68.7232 55.6302 66.4203C57.0804 64.5305 49.6163 71.8283 45.7461 71.8882C43.1799 71.9279 42.6293 66.8523 38.4324 62.8132C36.6151 61.0642 36.4114 56.3911 36.1019 54.8323C35.8631 53.6298 34.3911 52.6303 33.7575 50.7527C33.4948 49.9743 33.6539 48.72 33.6411 48.5109C33.4714 45.7472 34.1728 54.4419 34.7474 57.4507C35.3397 60.5519 35.8893 63.5651 36.4127 65.4975C36.8606 67.1508 38.5881 68.6529 39.295 69.8301C39.4696 70.1208 39.6324 70.4018 39.629 70.4365C39.5303 71.4488 38.3738 68.2587 37.9889 66.8203C37.7099 65.7779 40.8323 66.4317 44.2089 65.3754C46.6541 64.6104 50.4248 62.9093 53.1782 61.5986C57.6086 59.4895 59.3671 58.1105 59.5656 58.055C61.4434 57.5299 54.2391 63.4132 50.6417 65.8214C50.3209 66.0362 50.3483 65.3956 50.602 64.8282C51.1699 63.558 52.8929 61.5577 54.7029 59.8086C55.2189 59.31 55.31 60.1095 55.0623 60.8846C53.6945 65.166 49.9674 68.0865 48.9489 68.8919C48.6093 69.1605 48.4409 68.8492 48.4423 68.4681C48.4502 66.3604 50.9425 63.6493 52.0531 62.5721C54.3097 60.3833 47.1173 67.8827 46.585 68.0327C45.3655 68.3764 47.1452 64.7009 47.7868 63.8236C48.3917 62.9966 46.8444 67.331 45.8902 69.6427C45.0957 71.5677 48.3069 63.5297 49.0965 62.1056C49.2276 61.8692 47.5451 64.0463 45.8046 65.9298C45.1399 66.649 44.8613 66.8339 44.727 65.8247C43.8944 59.5687 45.2379 57.118 45.6212 56.1416C46.1674 54.7508 44.1533 61.0309 42.6474 63.7294C42.158 64.6064 41.9601 64.3212 42.0156 63.8173C42.4546 59.8349 46.0448 56.0734 46.8424 55.3024C47.0717 55.0807 45.6939 57.5554 44.2788 59.4933C42.6003 61.792 49.753 55.5654 52.4285 54.6706C52.963 54.4918 53.4207 54.5117 53.7527 54.5822C54.0847 54.6526 54.2956 54.8411 54.311 55.1533C54.4728 58.4145 49.6252 61.5709 49.0868 61.8964C48.056 62.5195 49.8612 58.4783 49.9902 57.4658C50.0632 56.893 47.6713 59.3065 46.9795 59.8711C46.2877 60.4358 46.7345 59.8726 47.196 59.3818C48.0759 58.4461 46.1304 60.897 42.4923 64.8155C41.3999 65.9922 41.5183 65.2025 42.0839 63.8351C42.6494 62.4677 43.5769 60.4653 43.8098 59.5031C44.0427 58.5408 43.5529 58.6795 42.8606 58.9976C42.1683 59.3158 41.2884 59.8092 40.8371 59.8509C40.3857 59.8927 40.3897 59.4678 40.4189 59.095C40.4725 58.4113 40.6855 57.7955 40.8428 57.6192C41.3006 57.106 39.9866 61.2271 38.9091 64.5218C38.7544 64.9948 39.4731 62.7097 40.3877 60.0424C40.7014 59.1277 40.3516 59 40.0503 58.9474C39.4226 58.838 38.7285 58.7959 38.0765 58.5651C37.4688 58.3499 37.0374 57.7996 36.7496 57.1961C36.6149 56.9137 36.6605 56.6173 36.7868 56.5663C37.1545 56.4179 38.4162 60.0483 39.8688 63.0402C41.503 66.406 39.6555 53.7342 39.4138 51.4064C39.078 48.173 42.3605 57.4466 42.6808 60.1236C42.7387 60.6069 42.5972 60.904 42.4445 61.1267C42.2918 61.3493 42.0689 61.4919 41.8285 61.4693C41.5881 61.4467 41.3369 61.2546 41.1345 60.6534C40.61 59.0962 40.5925 56.1253 40.7161 52.1445C40.8517 47.7768 42.4926 43.6593 44.2987 40.253C47.3084 34.5768 51.8912 33.7844 53.6612 33.6907C54.4708 33.6479 55.0867 34.1337 55.5605 34.753C56.5833 36.09 56.7059 38.2965 56.6357 40.642C56.4948 45.3523 52.9046 48.1653 50.7891 49.3462C50.3437 49.5949 49.8474 49.5833 49.465 49.503C49.0825 49.4227 48.7884 49.1818 48.5999 48.7405C47.5609 46.3084 49.2356 42.3616 51.348 39.3271C52.2085 38.091 53.5424 37.838 54.3956 37.7646C54.7843 37.7312 55.0842 37.9633 55.2882 38.3183C56.4327 40.3094 55.0188 44.011 52.7956 47.1236C51.7423 48.5984 49.9731 49.0179 48.5785 49.2062C47.8938 49.2986 47.2314 48.9702 46.7025 48.4562C45.5586 47.3445 45.303 45.0973 45.2154 42.5797C45.1248 39.9804 45.8183 37.7046 46.6046 36.0506C47.2563 34.6796 48.4753 34.0853 49.3676 33.7761C49.7634 33.6389 50.1074 33.7813 50.3522 34.0891C51.8094 35.9213 50.9374 40.1616 49.9053 43.8364C49.4854 45.3314 48.1745 46.0492 47.1986 46.541C46.7315 46.7764 46.2529 46.8324 45.8459 46.7319C45.4389 46.6314 45.1006 46.334 44.8076 45.7871C44.5147 45.2402 44.2773 44.4527 44.1159 43.2574C43.9544 42.0621 43.876 40.4829 43.7953 38.8559" stroke="#F4D548" stroke-width="3" stroke-linecap="round"/>
<path d="M28.3838 41.3669C28.3838 40.9069 28.593 38.9826 30.8021 33.8223C32.2796 30.3711 36.1942 27.3361 38.7674 25.7624C40.5791 24.6545 43.6686 23.3564 46.6035 22.3093C49.5385 21.2621 52.2894 20.6173 54.6498 20.2589C58.868 19.6183 61.422 19.8365 63.6672 20.2513C68.1113 21.0721 71.8728 22.5372 74.0022 23.7501C76.4887 25.1665 78.5545 27.5335 80.4301 29.9489C84.0505 34.6117 84.6803 38.4955 84.9211 40.4296C85.1744 42.4653 84.9129 44.1256 84.587 45.5134C83.9219 48.3448 82.2116 52.2051 79.9816 56.4589C78.8335 58.6489 77.3506 60.7377 75.2809 63.1461C73.2113 65.5546 70.5226 68.1773 68.0955 70.2218C63.7607 73.8733 60.0667 75.7106 57.4131 76.8316C53.5935 78.4449 49.0555 78.2659 46.2665 78.16C43.4627 78.0534 39.5791 75.2642 37.5876 73.009C35.3636 70.4903 33.8877 66.9229 32.7425 63.9044C32.2025 62.481 32.017 61.182 31.7034 58.8192C31.3897 56.4565 31.0229 53.045 30.8191 49.1881C30.6154 45.3311 30.5859 41.1321 30.6207 38.6802C30.6555 36.2282 30.7555 35.6506 30.9429 35.1647" stroke="black" stroke-width="3" stroke-linecap="round"/>
</svg>
