<svg width="542" height="478" viewBox="0 0 542 478" fill="none" xmlns="http://www.w3.org/2000/svg">
<path d="M484.775 152.048C473.778 164.511 460.275 181.548 441.774 209.548C433.911 221.45 441.474 235.73 452.275 245.048C463.65 254.862 482.206 261.631 491.775 250.048C510.775 227.048 525.775 211.048 537.774 189.048C546.113 173.76 538.91 155.986 524.274 146.548C509.639 137.111 492.275 143.548 484.775 152.048Z" fill="#F4D548"/>
<path d="M345.275 150.549C350.775 115.048 361.275 76.0483 367.275 50.0486C371.472 31.8589 396.437 28.9872 413.275 37.0486C427.41 43.8163 437.325 56.2838 433.775 71.5486C423.775 114.548 419.775 137.548 408.775 170.049C403.88 184.509 387.145 187.503 372.275 184.049C355.908 180.247 342.702 167.153 345.275 150.549Z" fill="#8884DF"/>
<path d="M227.775 146.049C225.775 113.049 222.775 66.0483 222.775 29.0486C222.775 10.6898 241.438 -0.846043 259.775 0.0485514C277.058 0.891727 293.275 11.745 293.275 29.0486C293.275 72.5483 297.775 111.548 297.775 146.049C297.775 164.482 278.143 175.592 259.775 174.049C243.227 172.659 228.779 162.623 227.775 146.049Z" fill="#E4282E"/>
<path d="M168.775 443.048C130.775 406.548 168.775 378.548 168.775 341.548C168.775 324.038 160.413 313.824 163.275 296.548C168.742 263.544 189.037 243.628 220.775 233.048C249.275 223.548 288.775 213.342 326.775 223.548C379.52 237.715 416.342 264.375 430.775 317.048C441.913 357.699 436.872 388.624 413.275 423.548C381.322 470.839 334.346 477.532 277.275 477.048C232.873 476.672 206.775 479.549 168.775 443.048Z" fill="#34C363"/>
<path d="M197.775 360.048C200.875 352.484 206.097 349.357 213.775 346.548C223.738 342.904 232.575 342.816 240.775 349.548C247.809 355.324 251.151 362.051 249.775 371.048C248.271 380.879 241.568 386.008 232.275 389.548C220.715 393.951 208.778 392.882 201.275 383.048C195.764 375.825 194.329 368.455 197.775 360.048Z" fill="#FAFAFA"/>
<path d="M216.787 354.652C216.787 354.652 216.393 349.922 216.524 346.894C216.701 342.793 216.617 340.335 218.073 336.497C219.597 332.476 220.885 330.1 224.175 327.331C228.806 323.433 233.027 321.899 239.008 322.832C244.763 323.73 247.601 326.695 251.437 331.08C254.714 334.827 257.457 342.316 257.457 342.316L246.409 347.234L243.42 340.826C243.42 340.826 239.205 333.685 235.212 334.433C232.464 334.948 231.28 336.781 229.862 339.191C227.577 343.076 229.706 350.733 229.706 350.733C229.706 350.733 225.734 355.189 222.297 355.593C220.129 355.847 216.787 354.652 216.787 354.652Z" fill="black"/>
<path d="M292.775 370.048C284.786 369.051 277.775 363.048 276.775 357.048C275.775 351.048 280.775 348.548 282.775 348.548C289.15 348.548 290.9 356.076 297.275 356.048C304.008 356.019 305.542 347.548 312.275 347.548C318.275 347.549 320.355 353.185 318.275 357.048C314.775 363.548 309.458 366.939 301.775 369.048C298.365 369.985 296.284 370.486 292.775 370.048Z" fill="#FCF6F6"/>
<path d="M399.775 353.43C396.674 345.865 391.452 342.738 383.775 339.93C373.811 336.285 364.974 336.197 356.775 342.93C349.74 348.706 346.398 355.432 347.775 364.43C349.279 374.26 355.981 379.39 365.275 382.93C376.834 387.333 388.771 386.264 396.275 376.43C401.786 369.207 403.22 361.836 399.775 353.43Z" fill="white"/>
<path d="M386.124 346.327C386.124 346.327 386.764 341.624 386.79 338.593C386.827 334.488 387.039 332.039 385.785 328.13C384.471 324.035 383.309 321.595 380.168 318.659C375.746 314.525 371.611 312.774 365.589 313.394C359.795 313.991 356.806 316.804 352.748 320.983C349.28 324.555 346.151 331.891 346.151 331.891L356.928 337.378L360.246 331.134C360.246 331.134 364.827 324.222 368.776 325.177C371.494 325.834 372.581 327.726 373.871 330.206C375.951 334.206 373.427 341.741 373.427 341.741C373.427 341.741 377.161 346.398 380.572 346.98C382.724 347.347 386.124 346.327 386.124 346.327Z" fill="black"/>
<path d="M60.2747 358.548C41.2747 346.048 32.7747 333.048 10.7747 315.048C-4.7253 302.367 -2.41131 279.916 10.7747 266.048C21.516 254.752 36.712 249.043 49.7747 257.548C71.2747 271.548 88.2747 292.548 100.775 304.048C112.845 315.154 110.469 332.818 100.775 346.048C90.9915 359.4 70.7747 365.456 60.2747 358.548Z" fill="#7AA8EA"/>
<path d="M123.275 190.048C114.275 177.352 93.7748 103.548 88.2747 87.5484C82.7747 71.5485 98.0964 58.9995 113.775 54.0484C129.909 48.9534 151.215 54.0481 154.775 68.0484C162.275 97.5487 179.275 136.549 185.275 169.548C187.999 184.531 174.336 194.593 159.775 199.048C145.736 203.344 132.275 202.744 123.275 190.048Z" fill="#E15E89"/>
</svg>
